<svg width="142" height="126" viewBox="0 0 142 126" fill="none" xmlns="http://www.w3.org/2000/svg">
<path d="M110.415 33.5456C107.305 30.6739 104.582 26.524 101.698 22.1298C98.345 17.0189 94.8776 11.7344 90.2407 7.54791C84.6159 2.46864 78.3222 0 71 0C63.6778 0 57.3841 2.46864 51.7593 7.54736C47.1224 11.7341 43.655 17.0186 40.3017 22.1293C37.4187 26.5235 34.6954 30.6739 31.585 33.545C19.7716 44.451 0 62.7038 0 88.1215C0 101.459 6.32538 111.226 18.8011 117.151C30.1808 122.556 46.7674 125.073 71 125.073C95.2326 125.073 111.819 122.556 123.199 117.151C135.675 111.226 142 101.459 142 88.1215C142 62.7038 122.228 44.451 110.415 33.5456ZM119.226 108.785C109.271 113.513 93.4959 115.812 71 115.812C48.5041 115.812 32.7291 113.514 22.7744 108.785C13.4287 104.347 9.26078 97.9739 9.26078 88.1215C9.26078 66.7583 26.4755 50.866 37.8666 40.3499C41.8135 36.7064 44.9813 31.8787 48.0445 27.2099C51.0767 22.5885 54.2118 17.8099 57.9654 14.421C61.8646 10.9007 66.0061 9.26106 71 9.26106C75.9939 9.26106 80.1354 10.9007 84.0343 14.4213C87.7879 17.8102 90.923 22.5888 93.9552 27.2102C97.0185 31.879 100.186 36.707 104.133 40.3502C115.524 50.8662 132.739 66.7586 132.739 88.1218C132.739 97.9739 128.571 104.347 119.226 108.785Z" fill="#4B93FF"/>
</svg>
